<svg width="24" height="24" viewBox="0 0 24 24" fill="none" xmlns="http://www.w3.org/2000/svg">
    <path d="M2 14.4999L2 14.9999V14.9999C2 16.8612 2 17.7918 2.24472 18.545C2.73931 20.0672 3.93273 21.2606 5.45491 21.7552C6.20808 21.9999 7.13872 21.9999 9 21.9999H14C16.8003 21.9999 18.2004 21.9999 19.27 21.4549C20.2108 20.9755 20.9757 20.2106 21.455 19.2698C22 18.2003 22 16.8001 22 13.9999V9.99988C22 7.19962 22 5.79948 21.455 4.72993C20.9757 3.78912 20.2108 3.02421 19.27 2.54485C18.2004 1.99988 16.8003 1.99988 14 1.99988L9 1.99988C7.13872 1.99988 6.20808 1.99988 5.45491 2.2446C3.93273 2.73919 2.73931 3.9326 2.24472 5.45479C2 6.20796 2 7.1386 2 8.99988V8.99988L2 9.49988M13 7.99988L17 11.9999M17 11.9999L13 15.9999M17 11.9999H7"
          stroke="#2F384C" stroke-width="1.5" stroke-linecap="round" stroke-linejoin="round"/>
</svg>
