<svg width="24" height="24" viewBox="0 0 24 24" fill="none" xmlns="http://www.w3.org/2000/svg">
    <path d="M9.5 22H9V22C7.13872 22 6.20808 22 5.45492 21.7553C3.93273 21.2607 2.73931 20.0673 2.24472 18.5451C2 17.7919 2 16.8613 2 15V10C2 7.19974 2 5.79961 2.54497 4.73005C3.02433 3.78924 3.78924 3.02433 4.73005 2.54497C5.79961 2 7.19974 2 10 2H14C16.8003 2 18.2004 2 19.27 2.54497C20.2108 3.02433 20.9757 3.78924 21.455 4.73005C22 5.79961 22 7.19974 22 10V15C22 16.8613 22 17.7919 21.7553 18.5451C21.2607 20.0673 20.0673 21.2607 18.5451 21.7553C17.7919 22 16.8613 22 15 22V22H14.5M8 11L12.0001 7M12.0001 7L16.0001 11M12.0001 7V17"
          stroke="#2F384C" stroke-width="1.5" stroke-linecap="round" stroke-linejoin="round"/>
</svg>
