<svg width="24" height="24" viewBox="0 0 24 24" fill="none" xmlns="http://www.w3.org/2000/svg">
    <path d="M5 2H6.8C7.9201 2 8.48016 2 8.90798 2.21799C9.28431 2.40973 9.59027 2.71569 9.78201 3.09202C10 3.51984 10 4.07989 10 5.2V6.8C10 7.92011 10 8.48016 9.78201 8.90798C9.59027 9.28431 9.28431 9.59027 8.90798 9.78201C8.48016 10 7.92011 10 6.8 10H5.2C4.07989 10 3.51984 10 3.09202 9.78201C2.71569 9.59027 2.40973 9.28431 2.21799 8.90798C2 8.48016 2 7.92011 2 6.8V5M18 10V6M18 6V2M18 6H14M20.5 6H22M18.8 14H17.2C16.0799 14 15.5198 14 15.092 14.218C14.7157 14.4097 14.4097 14.7157 14.218 15.092C14 15.5198 14 16.0799 14 17.2V18.8C14 19.9201 14 20.4802 14.218 20.908C14.4097 21.2843 14.7157 21.5903 15.092 21.782C15.5198 22 16.0799 22 17.2 22H18.8C19.9201 22 20.4802 22 20.908 21.782C21.2843 21.5903 21.5903 21.2843 21.782 20.908C22 20.4802 22 19.9201 22 18.8V17.2C22 16.0799 22 15.5198 21.782 15.092C21.5903 14.7157 21.2843 14.4097 20.908 14.218C20.4802 14 19.9201 14 18.8 14ZM5.2 22H6.8C7.92011 22 8.48016 22 8.90798 21.782C9.28431 21.5903 9.59027 21.2843 9.78201 20.908C10 20.4802 10 19.9201 10 18.8V17.2C10 16.0799 10 15.5198 9.78201 15.092C9.59027 14.7157 9.28431 14.4097 8.90798 14.218C8.48016 14 7.92011 14 6.8 14H5.2C4.07989 14 3.51984 14 3.09202 14.218C2.71569 14.4097 2.40973 14.7157 2.21799 15.092C2 15.5198 2 16.0799 2 17.2V18.8C2 19.9201 2 20.4802 2.21799 20.908C2.40973 21.2843 2.71569 21.5903 3.09202 21.782C3.51984 22 4.07989 22 5.2 22Z"
          stroke="#2F384C" stroke-width="1.5" stroke-linecap="round" stroke-linejoin="round"/>
</svg>
