<svg width="24" height="24" viewBox="0 0 24 24" fill="none" xmlns="http://www.w3.org/2000/svg">
    <path d="M17 4.00486C14.7988 2.2705 13.4921 1.40332 12 1.40332C10.2461 1.40332 8.74841 2.60147 5.75305 4.99776L5.54868 5.16125C3.90732 6.47434 3.08663 7.13089 2.60449 8.02015C2.52695 8.16316 2.45644 8.30987 2.39321 8.45975C2 9.39176 2 10.4428 2 12.5447V17.0002C2 19.7616 4.23858 22.0002 7 22.0002C8.10457 22.0002 9 21.1048 9 20.0002V16.0001C9 14.3433 10.3431 13.0001 12 13.0001C13.6569 13.0001 15 14.3433 15 16.0001V20.0002C15 21.1048 15.8954 22.0002 17 22.0002C19.7614 22.0002 22 19.7616 22 17.0002V12.5447C22 10.4428 22 9.39176 21.6068 8.45975C21.5436 8.30987 21.473 8.16316 21.3955 8.02015C21.0976 7.47061 20.6703 7.00994 20 6.42827"
          stroke="#2F384C" stroke-width="1.5" stroke-linecap="round" stroke-linejoin="round"/>
</svg>
