<svg width="24" height="24" viewBox="0 0 24 24" fill="none" xmlns="http://www.w3.org/2000/svg">
    <g opacity="0.12">
        <path d="M5 17.2C5 16.0799 5 15.5198 5.21799 15.092C5.40973 14.7157 5.71569 14.4097 6.09202 14.218C6.51984 14 7.07989 14 8.2 14H9.8C10.9201 14 11.4802 14 11.908 14.218C12.2843 14.4097 12.5903 14.7157 12.782 15.092C13 15.5198 13 16.0799 13 17.2V18.8C13 19.9201 13 20.4802 12.782 20.908C12.5903 21.2843 12.2843 21.5903 11.908 21.782C11.4802 22 10.9201 22 9.8 22H8.2C7.07989 22 6.51984 22 6.09202 21.782C5.71569 21.5903 5.40973 21.2843 5.21799 20.908C5 20.4802 5 19.9201 5 18.8V17.2Z"
              fill="#2F384C"/>
        <path d="M11 5.2C11 4.07989 11 3.51984 11.218 3.09202C11.4097 2.71569 11.7157 2.40973 12.092 2.21799C12.5198 2 13.0799 2 14.2 2H15.8C16.9201 2 17.4802 2 17.908 2.21799C18.2843 2.40973 18.5903 2.71569 18.782 3.09202C19 3.51984 19 4.07989 19 5.2V6.8C19 7.92011 19 8.48016 18.782 8.90798C18.5903 9.28431 18.2843 9.59027 17.908 9.78201C17.4802 10 16.9201 10 15.8 10H14.2C13.0799 10 12.5198 10 12.092 9.78201C11.7157 9.59027 11.4097 9.28431 11.218 8.90798C11 8.48016 11 7.92011 11 6.8V5.2Z"
              fill="#2F384C"/>
    </g>
    <path d="M2 18H5M19 6H22M16 18H22M2 6H8M8.2 22H9.8C10.9201 22 11.4802 22 11.908 21.782C12.2843 21.5903 12.5903 21.2843 12.782 20.908C13 20.4802 13 19.9201 13 18.8V17.2C13 16.0799 13 15.5198 12.782 15.092C12.5903 14.7157 12.2843 14.4097 11.908 14.218C11.4802 14 10.9201 14 9.8 14H8.2C7.07989 14 6.51984 14 6.09202 14.218C5.71569 14.4097 5.40973 14.7157 5.21799 15.092C5 15.5198 5 16.0799 5 17.2V18.8C5 19.9201 5 20.4802 5.21799 20.908C5.40973 21.2843 5.71569 21.5903 6.09202 21.782C6.51984 22 7.07989 22 8.2 22ZM14.2 10H15.8C16.9201 10 17.4802 10 17.908 9.78201C18.2843 9.59027 18.5903 9.28431 18.782 8.90798C19 8.48016 19 7.92011 19 6.8V5.2C19 4.07989 19 3.51984 18.782 3.09202C18.5903 2.71569 18.2843 2.40973 17.908 2.21799C17.4802 2 16.9201 2 15.8 2H14.2C13.0799 2 12.5198 2 12.092 2.21799C11.7157 2.40973 11.4097 2.71569 11.218 3.09202C11 3.51984 11 4.07989 11 5.2V6.8C11 7.92011 11 8.48016 11.218 8.90798C11.4097 9.28431 11.7157 9.59027 12.092 9.78201C12.5198 10 13.0799 10 14.2 10Z"
          stroke="#2F384C" stroke-width="1.5" stroke-linecap="round"/>
</svg>
